<?xml version="1.0" encoding="utf-8"?>
<!-- Generator: Adobe Illustrator 15.1.0, SVG Export Plug-In . SVG Version: 6.00 Build 0)  -->
<!DOCTYPE svg PUBLIC "-//W3C//DTD SVG 1.1//EN" "http://www.w3.org/Graphics/SVG/1.1/DTD/svg11.dtd">
<svg version="1.1" id="Camada_1" xmlns="http://www.w3.org/2000/svg" xmlns:xlink="http://www.w3.org/1999/xlink" x="0px" y="0px"
	 width="340.158px" height="170.079px" viewBox="-28.349 56.976 340.158 170.079"
	 enable-background="new -28.349 56.976 340.158 170.079" xml:space="preserve">
<g>
	<g>
		<path d="M155.238,153.709l-3.891,4.616c-1.799-1.555-3.691-2.43-6.025-2.43c-4.277,0-7.291,3.451-7.291,11.713
			c0,8.117,2.965,11.566,7.436,11.566c2.676,0,4.619-1.313,6.564-2.818l3.596,4.666c-2.188,2.236-5.881,4.326-10.547,4.326
			c-9.234,0-15.408-6.222-15.408-17.74c0-11.275,6.514-17.596,15.166-17.596C149.404,150.015,152.466,151.375,155.238,153.709z"/>
		<path d="M166.732,149.48c0,2.479-1.896,4.375-4.568,4.375c-2.674,0-4.521-1.896-4.521-4.375c0-2.479,1.848-4.374,4.521-4.374
			C164.835,145.106,166.732,147.001,166.732,149.48z M166.05,184.523h-7.68v-25.809h7.68V184.523z"/>
		<path d="M194.73,148.459v36.063h-6.807l-0.389-3.014c-1.457,2.139-3.84,3.84-7.338,3.84c-6.564,0-9.82-5.443-9.82-13.804
			c0-7.974,4.035-13.657,10.693-13.657c2.334,0,4.424,0.922,5.979,2.43v-12.686L194.73,148.459z M187.05,176.843v-11.179
			c-1.166-1.36-2.334-2.188-3.984-2.188c-2.771,0-4.715,2.334-4.715,8.117c0,6.416,1.75,8.117,4.275,8.117
			C184.425,179.711,185.835,178.74,187.05,176.843z"/>
		<path d="M222.589,180.197l-1.604,5.007c-3.016-0.242-5.008-1.166-6.225-3.693c-1.846,2.818-4.713,3.839-7.773,3.839
			c-5.152,0-8.41-3.353-8.41-8.068c0-5.637,4.277-8.698,12.104-8.698h2.623v-1.118c0-3.063-1.215-3.984-4.373-3.984
			c-1.65,0-4.182,0.484-6.758,1.359l-1.75-5.057c3.258-1.215,6.807-1.895,9.725-1.895c7.482,0,10.689,3.159,10.689,9.137v10.014
			C220.837,179.031,221.373,179.759,222.589,180.197z M213.304,177.426v-4.616h-1.895c-3.5,0-5.201,1.215-5.201,3.791
			c0,2.041,1.117,3.256,3.014,3.256C210.974,179.857,212.382,178.933,213.304,177.426z"/>
		<path d="M249.671,148.459v36.063h-6.805l-0.389-3.014c-1.459,2.139-3.842,3.84-7.34,3.84c-6.563,0-9.816-5.443-9.816-13.804
			c0-7.974,4.033-13.657,10.689-13.657c2.334,0,4.426,0.922,5.98,2.43v-12.686L249.671,148.459z M241.992,176.843v-11.179
			c-1.166-1.36-2.332-2.188-3.984-2.188c-2.77,0-4.715,2.334-4.715,8.117c0,6.416,1.75,8.117,4.277,8.117
			C239.367,179.711,240.777,178.74,241.992,176.843z"/>
		<path d="M277.531,180.197l-1.605,5.007c-3.012-0.242-5.004-1.166-6.221-3.693c-1.846,2.818-4.715,3.839-7.777,3.839
			c-5.148,0-8.406-3.353-8.406-8.068c0-5.637,4.275-8.698,12.104-8.698h2.625v-1.118c0-3.063-1.215-3.984-4.375-3.984
			c-1.652,0-4.18,0.484-6.756,1.359l-1.75-5.057c3.256-1.215,6.805-1.895,9.721-1.895c7.484,0,10.693,3.159,10.693,9.137v10.014
			C275.781,179.031,276.318,179.759,277.531,180.197z M260.13,153.611l-3.84-1.848c1.215-3.111,3.354-5.734,6.27-5.734
			c2.967,0,4.033,2.188,5.639,2.188c1.07,0,1.75-0.729,2.525-2.138l3.842,1.896c-1.266,3.256-3.449,5.688-6.318,5.688
			c-2.818,0-3.938-2.188-5.541-2.188C261.541,151.472,260.908,152.251,260.13,153.611z M268.248,177.426v-4.616h-1.896
			c-3.498,0-5.199,1.215-5.199,3.791c0,2.041,1.117,3.256,3.014,3.256C265.914,179.857,267.324,178.933,268.248,177.426z"/>
		<path d="M305.294,171.644c0,8.262-4.762,13.705-12.637,13.705c-7.826,0-12.637-5.055-12.637-13.755
			c0-8.262,4.764-13.707,12.637-13.707C300.533,157.888,305.294,162.943,305.294,171.644z M287.992,171.594
			c0,5.735,1.555,8.117,4.666,8.117s4.666-2.479,4.666-8.067c0-5.736-1.557-8.117-4.666-8.117
			C289.546,163.527,287.992,166.004,287.992,171.594z"/>
	</g>
	<g>
		<path d="M155.105,135.046h13.465l-0.73,5.249h-19.148V106.71h6.416v28.336H155.105z"/>
		<path d="M195.578,127.417c0,8.116-4.521,13.609-12.104,13.609s-12.104-5.151-12.104-13.609c0-8.068,4.521-13.562,12.152-13.562
			C191.107,113.855,195.578,119.006,195.578,127.417z M177.935,127.417c0,6.173,1.896,8.895,5.541,8.895
			c3.646,0,5.541-2.771,5.541-8.895s-1.896-8.847-5.49-8.847C179.878,118.569,177.935,121.339,177.935,127.417z"/>
		<path d="M223.882,115.945c-1.943,0.681-4.375,0.874-7.436,0.874c3.107,1.409,4.666,3.403,4.666,6.61
			c0,5.007-3.891,8.651-10.355,8.651c-1.119,0-2.09-0.098-3.063-0.39c-0.633,0.438-1.068,1.118-1.068,1.896
			c0,0.924,0.533,1.798,3.111,1.798h3.936c5.689,0,9.383,3.062,9.383,7.291c0,5.15-4.424,8.215-12.832,8.215
			c-9.139,0-11.715-2.916-11.715-8.068h5.59c0,2.576,1.117,3.693,6.223,3.693c5.006,0,6.465-1.36,6.465-3.402
			c0-1.896-1.508-3.063-4.375-3.063h-3.889c-5.152,0-7.34-2.284-7.34-4.957c0-1.799,1.119-3.597,3.014-4.765
			c-3.158-1.651-4.52-3.937-4.52-7.241c0-5.59,4.422-9.235,10.645-9.235c6.076,0.146,8.895-1.215,12.006-2.867L223.882,115.945z
			 M205.947,122.992c0,3.11,1.701,5.056,4.566,5.056c2.967,0,4.568-1.848,4.568-5.104s-1.555-4.86-4.666-4.86
			C207.601,118.084,205.947,120.027,205.947,122.992z"/>
		<path d="M234.496,105.35c0,2.09-1.604,3.743-3.938,3.743c-2.283,0-3.891-1.652-3.891-3.743c0-2.139,1.605-3.791,3.891-3.791
			C232.892,101.559,234.496,103.211,234.496,105.35z M233.718,140.296h-6.221v-25.712h6.221V140.296z"/>
		<path d="M262.203,121.681v18.616h-6.221v-17.643c0-3.208-1.219-4.132-3.16-4.132c-2.236,0-3.889,1.507-5.396,3.889v17.887h-6.223
			v-25.712h5.396l0.484,3.401c1.992-2.576,4.568-4.131,7.824-4.131C259.529,113.855,262.203,116.771,262.203,121.681z"/>
	</g>
	<g>
		<g>
			<g>
				<g>
					<g>
						<defs>
							<path id="SVGID_1_" d="M56.957,193.464L12.63,181.588c-2.51-0.673-4.467-2.628-5.137-5.134l-11.88-44.33
								c-0.67-2.506,0.019-5.187,1.854-7.021l32.484-32.45c0.92-0.917,2.035-1.561,3.25-1.887c0.606-0.164,1.219-0.243,1.854-0.246
								c0.631,0,1.256,0.079,1.885,0.246l44.357,11.877c2.51,0.672,4.467,2.628,5.141,5.135l11.875,44.364
								c0.672,2.508-0.049,5.149-1.891,6.985l-32.447,32.485c-0.92,0.92-2.037,1.529-3.25,1.853
								c-0.609,0.164-1.248,0.249-1.891,0.249C58.208,193.713,57.576,193.632,56.957,193.464 M62.796,73.336
								c-0.832,0-1.697,0.092-2.522,0.313L1.173,89.511c-3.348,0.891-5.955,3.5-6.848,6.844l-15.824,59.104
								c-0.896,3.347,0.031,6.912,2.481,9.36l43.274,43.281c1.223,1.223,2.75,2.045,4.367,2.479c1.617,0.431,3.322,0.448,4.996,0
								l59.1-15.822c3.348-0.899,5.951-3.507,6.85-6.849l15.861-59.106c0.895-3.341-0.066-6.915-2.52-9.361L69.632,76.166
								c-1.225-1.227-2.715-2.084-4.332-2.516c-0.807-0.217-1.635-0.313-2.479-0.314L62.796,73.336L62.796,73.336z"/>
						</defs>
						<clipPath id="SVGID_2_">
							<use xlink:href="#SVGID_1_"  overflow="visible"/>
						</clipPath>
						
							<linearGradient id="SVGID_3_" gradientUnits="userSpaceOnUse" x1="156.7075" y1="-87.7598" x2="157.7831" y2="-87.7598" gradientTransform="matrix(55.3947 55.3947 -55.3947 55.3947 -13546.0742 -3728.0313)">
							<stop  offset="0" style="stop-color:#B61F29"/>
							<stop  offset="1" style="stop-color:#EB5E2F"/>
						</linearGradient>
						<polygon clip-path="url(#SVGID_2_)" fill="url(#SVGID_3_)" points="46.966,3.978 185.171,142.184 46.966,280.39 
							-91.239,142.184 						"/>
					</g>
				</g>
			</g>
		</g>
		<g>
			<g>
				<g>
					<g>
						<defs>
							<path id="SVGID_4_" d="M62.828,97.697l18.473,4.945c2.508,0.672,4.467,2.628,5.139,5.135l11.875,44.365
								c0.672,2.508-0.047,5.148-1.889,6.984l-32.449,32.486c-0.918,0.918-2.036,1.527-3.248,1.852c-1.21,0.324-2.52,0.338-3.771,0
								l-44.324-11.876c-2.512-0.673-4.467-2.628-5.139-5.134l-10.092-37.667c-5.545,9.598-9.217,20.405-10.51,31.94l37.365,37.373
								c1.224,1.223,2.75,2.045,4.367,2.48c1.617,0.432,3.324,0.447,4.998,0l59.1-15.823c3.346-0.899,5.949-3.507,6.85-6.848
								l15.859-59.107c0.895-3.341-0.066-6.915-2.518-9.361l-17.701-17.697c-8.258-2.774-17.092-4.299-26.279-4.299
								C66.876,97.447,64.847,97.548,62.828,97.697"/>
						</defs>
						<clipPath id="SVGID_5_">
							<use xlink:href="#SVGID_4_"  overflow="visible"/>
						</clipPath>
						
							<linearGradient id="SVGID_6_" gradientUnits="userSpaceOnUse" x1="156.7788" y1="-87.3403" x2="157.8547" y2="-87.3403" gradientTransform="matrix(52.2422 52.2422 -52.2422 52.2422 -12741.0566 -3512.709)">
							<stop  offset="0" style="stop-color:#FCEA10"/>
							<stop  offset="0.3946" style="stop-color:#F9C700"/>
							<stop  offset="0.8006" style="stop-color:#F5A200"/>
							<stop  offset="1" style="stop-color:#F39200"/>
						</linearGradient>
						<polygon clip-path="url(#SVGID_5_)" fill="url(#SVGID_6_)" points="51.607,32.73 173.115,154.238 51.607,275.749 
							-69.901,154.238 						"/>
					</g>
				</g>
			</g>
		</g>
		<g>
			<g>
				<g>
					<g>
						<defs>
							<path id="SVGID_7_" d="M98.314,152.142c0.672,2.508-0.049,5.148-1.891,6.985l-32.448,32.485
								c-0.919,0.92-2.036,1.529-3.248,1.852c-1.211,0.324-2.519,0.338-3.771,0l-25.809-6.913
								c-1.203,4.787-1.854,9.793-1.854,14.954c0,3.172,0.244,6.289,0.709,9.333c1.195,0.142,2.412,0.065,3.617-0.256l59.1-15.823
								c3.348-0.9,5.951-3.507,6.85-6.848l11.764-43.837c-5.088-1.853-10.492-3.033-16.111-3.473L98.314,152.142z"/>
						</defs>
						<clipPath id="SVGID_8_">
							<use xlink:href="#SVGID_7_"  overflow="visible"/>
						</clipPath>
						
							<linearGradient id="SVGID_9_" gradientUnits="userSpaceOnUse" x1="157.1284" y1="-85.3198" x2="158.2042" y2="-85.3198" gradientTransform="matrix(38.9454 38.9454 -38.9454 38.9454 -9382.6641 -2631.4895)">
							<stop  offset="0" style="stop-color:#DEDC00"/>
							<stop  offset="0.1013" style="stop-color:#C5CF00"/>
							<stop  offset="0.3193" style="stop-color:#92B61F"/>
							<stop  offset="0.5253" style="stop-color:#63A32D"/>
							<stop  offset="0.7135" style="stop-color:#3B9733"/>
							<stop  offset="0.8778" style="stop-color:#109035"/>
							<stop  offset="1" style="stop-color:#008D36"/>
						</linearGradient>
						<polygon clip-path="url(#SVGID_8_)" fill="url(#SVGID_9_)" points="70.316,99.585 146.521,175.792 70.316,251.998 
							-5.89,175.792 						"/>
					</g>
				</g>
			</g>
		</g>
		<g>
			<g>
				<g>
					<g>
						<defs>
							<path id="SVGID_10_" d="M56.957,193.249L12.63,181.373c-2.51-0.672-4.467-2.628-5.137-5.135l-11.88-44.332
								c-0.67-2.502,0.019-5.185,1.854-7.021l32.484-32.448c0.92-0.919,2.035-1.563,3.25-1.887c0.606-0.164,1.219-0.244,1.854-0.246
								c0.631,0,1.256,0.075,1.885,0.246l44.357,11.878c2.51,0.668,4.467,2.625,5.141,5.133l11.875,44.363
								c0.672,2.509-0.049,5.149-1.891,6.983l-32.447,32.488c-0.92,0.922-2.037,1.526-3.25,1.853
								c-0.609,0.165-1.248,0.249-1.891,0.249C58.208,193.499,57.576,193.417,56.957,193.249 M62.798,73.119
								c-0.834,0-1.699,0.092-2.524,0.314L1.173,89.292c-3.348,0.892-5.955,3.506-6.848,6.849l-15.824,59.104
								c-0.896,3.346,0.031,6.909,2.481,9.362l43.274,43.278c1.223,1.224,2.75,2.046,4.367,2.478c1.617,0.435,3.322,0.451,4.996,0
								l59.1-15.821c3.348-0.897,5.951-3.507,6.85-6.847l15.859-59.104c0.896-3.344-0.064-6.919-2.518-9.364L69.632,75.948
								c-1.225-1.227-2.715-2.083-4.332-2.516c-0.807-0.217-1.635-0.313-2.479-0.314H62.798L62.798,73.119z"/>
						</defs>
						<clipPath id="SVGID_11_">
							<use xlink:href="#SVGID_10_"  overflow="visible"/>
						</clipPath>
						
							<linearGradient id="SVGID_12_" gradientUnits="userSpaceOnUse" x1="156.6938" y1="-87.7461" x2="157.7704" y2="-87.7461" gradientTransform="matrix(55.3952 55.3952 -55.3952 55.3952 -13544.7031 -3728.3613)">
							<stop  offset="0" style="stop-color:#B61F29"/>
							<stop  offset="1" style="stop-color:#EB5E2F"/>
						</linearGradient>
						<polygon clip-path="url(#SVGID_11_)" fill="url(#SVGID_12_)" points="46.966,3.758 185.173,141.966 46.966,280.175 
							-91.242,141.966 						"/>
					</g>
				</g>
			</g>
		</g>
		<g>
			<g>
				<g>
					<g>
						<defs>
							<path id="SVGID_13_" d="M62.828,97.481l18.473,4.947c2.508,0.669,4.467,2.625,5.139,5.133l11.875,44.363
								c0.672,2.509-0.047,5.149-1.889,6.983l-32.449,32.488c-0.918,0.922-2.036,1.526-3.248,1.853c-1.21,0.323-2.52,0.339-3.771,0
								l-44.324-11.877c-2.512-0.673-4.467-2.63-5.139-5.136L-2.598,138.57c-5.545,9.597-9.217,20.406-10.51,31.943l37.365,37.372
								c1.224,1.224,2.75,2.048,4.367,2.479c1.617,0.434,3.324,0.451,4.998,0l59.1-15.822c3.346-0.896,5.949-3.506,6.85-6.846
								l15.859-59.104c0.895-3.344-0.066-6.919-2.518-9.364l-17.701-17.699c-8.258-2.771-17.092-4.298-26.279-4.298
								C66.876,97.229,64.847,97.333,62.828,97.481"/>
						</defs>
						<clipPath id="SVGID_14_">
							<use xlink:href="#SVGID_13_"  overflow="visible"/>
						</clipPath>
						
							<linearGradient id="SVGID_15_" gradientUnits="userSpaceOnUse" x1="156.7788" y1="-87.3403" x2="157.8548" y2="-87.3403" gradientTransform="matrix(52.2422 52.2422 -52.2422 52.2422 -12741.0566 -3512.959)">
							<stop  offset="0" style="stop-color:#FCEA10"/>
							<stop  offset="0.3946" style="stop-color:#F9C700"/>
							<stop  offset="0.8006" style="stop-color:#F5A200"/>
							<stop  offset="1" style="stop-color:#F39200"/>
						</linearGradient>
						<polygon clip-path="url(#SVGID_14_)" fill="url(#SVGID_15_)" points="51.607,32.513 173.119,154.023 51.607,275.531 
							-69.901,154.023 						"/>
					</g>
				</g>
			</g>
		</g>
		<g>
			<g>
				<g>
					<g>
						<defs>
							<path id="SVGID_16_" d="M98.314,151.924c0.672,2.509-0.049,5.149-1.891,6.983l-32.448,32.488
								c-0.919,0.922-2.036,1.526-3.248,1.852c-1.211,0.324-2.519,0.34-3.771,0l-25.81-6.914c-1.203,4.785-1.853,9.795-1.853,14.956
								c0,3.172,0.242,6.286,0.709,9.331c1.195,0.142,2.412,0.066,3.617-0.258l59.1-15.822c3.346-0.896,5.951-3.508,6.85-6.846
								l11.764-43.836c-5.088-1.855-10.494-3.04-16.113-3.477L98.314,151.924z"/>
						</defs>
						<clipPath id="SVGID_17_">
							<use xlink:href="#SVGID_16_"  overflow="visible"/>
						</clipPath>
						
							<linearGradient id="SVGID_18_" gradientUnits="userSpaceOnUse" x1="157.1274" y1="-85.3208" x2="158.2035" y2="-85.3208" gradientTransform="matrix(38.9454 38.9454 -38.9454 38.9454 -9382.6641 -2631.677)">
							<stop  offset="0" style="stop-color:#DEDC00"/>
							<stop  offset="0.1013" style="stop-color:#C5CF00"/>
							<stop  offset="0.3193" style="stop-color:#92B61F"/>
							<stop  offset="0.5253" style="stop-color:#63A32D"/>
							<stop  offset="0.7135" style="stop-color:#3B9733"/>
							<stop  offset="0.8778" style="stop-color:#109035"/>
							<stop  offset="1" style="stop-color:#008D36"/>
						</linearGradient>
						<polygon clip-path="url(#SVGID_17_)" fill="url(#SVGID_18_)" points="70.316,99.367 146.521,175.572 70.316,251.779 
							-5.89,175.572 						"/>
					</g>
				</g>
			</g>
		</g>
	</g>
	<path fill="none" d="M90.154,142.015c0,23.855-19.34,43.191-43.193,43.191c-23.853,0-43.188-19.336-43.188-43.191
		c0-23.853,19.336-43.191,43.188-43.191C70.816,98.823,90.154,118.163,90.154,142.015z"/>
	<rect x="160.798" y="139.848" fill="none" width="5.23" height="5.229"/>
</g>
</svg>
