<?xml version="1.0" encoding="utf-8"?>
<!-- Generator: Adobe Illustrator 15.1.0, SVG Export Plug-In . SVG Version: 6.00 Build 0)  -->
<!DOCTYPE svg PUBLIC "-//W3C//DTD SVG 1.1//EN" "http://www.w3.org/Graphics/SVG/1.1/DTD/svg11.dtd" [
	<!ENTITY ns_flows "http://ns.adobe.com/Flows/1.0/">
	<!ENTITY ns_extend "http://ns.adobe.com/Extensibility/1.0/">
	<!ENTITY ns_ai "http://ns.adobe.com/AdobeIllustrator/10.0/">
	<!ENTITY ns_graphs "http://ns.adobe.com/Graphs/1.0/">
	<!ENTITY ns_vars "http://ns.adobe.com/Variables/1.0/">
	<!ENTITY ns_imrep "http://ns.adobe.com/ImageReplacement/1.0/">
	<!ENTITY ns_sfw "http://ns.adobe.com/SaveForWeb/1.0/">
	<!ENTITY ns_custom "http://ns.adobe.com/GenericCustomNamespace/1.0/">
	<!ENTITY ns_adobe_xpath "http://ns.adobe.com/XPath/1.0/">
]>
<svg version="1.1" id="Camada_1" xmlns:x="&ns_extend;" xmlns:i="&ns_ai;" xmlns:graph="&ns_graphs;"
	 xmlns="http://www.w3.org/2000/svg" xmlns:xlink="http://www.w3.org/1999/xlink" xmlns:a="http://ns.adobe.com/AdobeSVGViewerExtensions/3.0/"
	 x="0px" y="0px" width="170.079px" height="170.079px" viewBox="0 0 170.079 170.079" enable-background="new 0 0 170.079 170.079"
	 xml:space="preserve" color-rendering="optimizeQuality" shape-rendering="optimizeSpeed">
<metadata>
	<sfw  xmlns="&ns_sfw;">
		<slices></slices>
		<sliceSourceBounds  height="276.411" width="276.411" y="3.127" x="3.298" bottomLeftOrigin="true"></sliceSourceBounds>
	</sfw>
</metadata>
<g>
	<g>
		<g>
			<g>
				<g>
					<g>
						<g>
							<defs>
								<path id="SVGID_1_" d="M95.034,136.488l-44.327-11.876c-2.51-0.673-4.465-2.628-5.137-5.134l-11.878-44.33
									c-0.67-2.504,0.017-5.187,1.854-7.021l32.484-32.45c0.92-0.916,2.036-1.561,3.249-1.886c0.608-0.163,1.22-0.243,1.854-0.247
									c0.631,0,1.255,0.079,1.884,0.247l44.358,11.877c2.51,0.672,4.467,2.629,5.139,5.136l11.876,44.362
									c0.67,2.508-0.05,5.147-1.89,6.984l-32.449,32.487c-0.918,0.918-2.037,1.526-3.248,1.85
									c-0.612,0.164-1.249,0.249-1.891,0.249C96.288,136.738,95.653,136.657,95.034,136.488 M100.872,16.36
									c-0.832,0-1.695,0.093-2.521,0.314L39.25,32.534c-3.348,0.89-5.954,3.5-6.847,6.844L16.577,98.483
									c-0.896,3.346,0.031,6.911,2.481,9.361l43.275,43.279c1.223,1.225,2.751,2.047,4.367,2.479c1.617,0.433,3.323,0.446,4.997,0
									l59.099-15.821c3.348-0.9,5.951-3.509,6.852-6.85l15.859-59.107c0.896-3.341-0.065-6.915-2.518-9.359l-43.281-43.278
									c-1.224-1.226-2.713-2.084-4.33-2.516c-0.809-0.216-1.637-0.313-2.479-0.314L100.872,16.36L100.872,16.36z"/>
							</defs>
							<clipPath id="SVGID_2_">
								<use xlink:href="#SVGID_1_"  overflow="visible"/>
							</clipPath>
							
								<linearGradient id="SVGID_3_" gradientUnits="userSpaceOnUse" x1="-6.3086" y1="314.0396" x2="-5.2318" y2="314.0396" gradientTransform="matrix(55.3947 55.3947 55.3947 -55.3947 -17012.5859 17779.8984)">
								<stop  offset="0" style="stop-color:#B61F29"/>
								<stop  offset="1" style="stop-color:#EB5E2F"/>
								<a:midPointStop  offset="0" style="stop-color:#B61F29"/>
								<a:midPointStop  offset="0.5" style="stop-color:#B61F29"/>
								<a:midPointStop  offset="1" style="stop-color:#EB5E2F"/>
							</linearGradient>
							<polygon clip-path="url(#SVGID_2_)" fill="url(#SVGID_3_)" points="85.043,-52.998 223.249,85.207 85.043,223.413 
								-53.162,85.207 							"/>
						</g>
					</g>
				</g>
			</g>
		</g>
		<g>
			<g>
				<g>
					<g>
						<g>
							<defs>
								<path id="SVGID_4_" d="M100.904,40.723l18.474,4.944c2.51,0.672,4.468,2.628,5.139,5.136l11.876,44.363
									c0.671,2.508-0.05,5.146-1.89,6.983l-32.448,32.485c-0.921,0.92-2.038,1.527-3.249,1.852c-1.213,0.325-2.52,0.34-3.771,0
									l-44.327-11.876c-2.51-0.673-4.465-2.628-5.137-5.134L35.478,81.813c-5.545,9.598-9.216,20.406-10.51,31.941l37.367,37.373
									c1.223,1.224,2.751,2.045,4.367,2.479c1.617,0.432,3.323,0.448,4.997,0l59.098-15.822c3.347-0.898,5.951-3.508,6.851-6.849
									l15.86-59.107c0.895-3.341-0.066-6.916-2.518-9.36L133.29,44.771c-8.258-2.774-17.09-4.298-26.278-4.298
									C104.954,40.472,102.924,40.572,100.904,40.723"/>
							</defs>
							<clipPath id="SVGID_5_">
								<use xlink:href="#SVGID_4_"  overflow="visible"/>
							</clipPath>
							
								<linearGradient id="SVGID_6_" gradientUnits="userSpaceOnUse" x1="-5.8262" y1="313.606" x2="-4.749" y2="313.606" gradientTransform="matrix(52.2422 52.2422 52.2422 -52.2422 -16028.8223 16745.6309)">
								<stop  offset="0" style="stop-color:#FCEA10"/>
								<stop  offset="0.3946" style="stop-color:#F9C700"/>
								<stop  offset="0.8006" style="stop-color:#F5A200"/>
								<stop  offset="1" style="stop-color:#F39200"/>
								<a:midPointStop  offset="0" style="stop-color:#FCEA10"/>
								<a:midPointStop  offset="0.5" style="stop-color:#FCEA10"/>
								<a:midPointStop  offset="0.3946" style="stop-color:#F9C700"/>
								<a:midPointStop  offset="0.5" style="stop-color:#F9C700"/>
								<a:midPointStop  offset="0.8006" style="stop-color:#F5A200"/>
								<a:midPointStop  offset="0.5" style="stop-color:#F5A200"/>
								<a:midPointStop  offset="1" style="stop-color:#F39200"/>
							</linearGradient>
							<polygon clip-path="url(#SVGID_5_)" fill="url(#SVGID_6_)" points="89.685,-24.244 211.193,97.263 89.685,218.771 
								-31.824,97.263 							"/>
						</g>
					</g>
				</g>
			</g>
		</g>
		<g>
			<g>
				<g>
					<g>
						<g>
							<defs>
								<path id="SVGID_7_" d="M136.391,95.167c0.671,2.508-0.049,5.148-1.889,6.985l-32.449,32.486
									c-0.92,0.919-2.038,1.526-3.249,1.851c-1.212,0.324-2.519,0.338-3.771,0l-25.81-6.912
									c-1.204,4.786-1.852,9.793-1.852,14.953c0,3.174,0.241,6.289,0.709,9.332c1.194,0.143,2.412,0.066,3.616-0.255
									l59.101-15.823c3.346-0.898,5.951-3.507,6.85-6.848L149.411,87.1c-5.088-1.854-10.494-3.034-16.111-3.474L136.391,95.167z"
									/>
							</defs>
							<clipPath id="SVGID_8_">
								<use xlink:href="#SVGID_7_"  overflow="visible"/>
							</clipPath>
							
								<linearGradient id="SVGID_9_" gradientUnits="userSpaceOnUse" x1="-3.0049" y1="311.4917" x2="-1.9277" y2="311.4917" gradientTransform="matrix(38.9454 38.9454 38.9454 -38.9454 -11916.5176 12356.1914)">
								<stop  offset="0" style="stop-color:#DEDC00"/>
								<stop  offset="0.1013" style="stop-color:#C5CF00"/>
								<stop  offset="0.3193" style="stop-color:#92B61F"/>
								<stop  offset="0.5253" style="stop-color:#63A32D"/>
								<stop  offset="0.7135" style="stop-color:#3B9733"/>
								<stop  offset="0.8778" style="stop-color:#109035"/>
								<stop  offset="1" style="stop-color:#008D36"/>
								<a:midPointStop  offset="0" style="stop-color:#DEDC00"/>
								<a:midPointStop  offset="0.5" style="stop-color:#DEDC00"/>
								<a:midPointStop  offset="0.1013" style="stop-color:#C5CF00"/>
								<a:midPointStop  offset="0.5" style="stop-color:#C5CF00"/>
								<a:midPointStop  offset="0.3193" style="stop-color:#92B61F"/>
								<a:midPointStop  offset="0.5" style="stop-color:#92B61F"/>
								<a:midPointStop  offset="0.5253" style="stop-color:#63A32D"/>
								<a:midPointStop  offset="0.5" style="stop-color:#63A32D"/>
								<a:midPointStop  offset="0.7135" style="stop-color:#3B9733"/>
								<a:midPointStop  offset="0.5" style="stop-color:#3B9733"/>
								<a:midPointStop  offset="0.8778" style="stop-color:#109035"/>
								<a:midPointStop  offset="0.5" style="stop-color:#109035"/>
								<a:midPointStop  offset="1" style="stop-color:#008D36"/>
							</linearGradient>
							<polygon clip-path="url(#SVGID_8_)" fill="url(#SVGID_9_)" points="108.393,42.609 184.597,118.814 108.393,195.021 
								32.188,118.814 							"/>
						</g>
					</g>
				</g>
			</g>
		</g>
	</g>
	<g>
		<g>
			<path fill="#FFFFFF" d="M55.795,86.388l-1.961,2.329c-0.906-0.784-1.863-1.227-3.042-1.227c-2.156,0-3.678,1.74-3.678,5.911
				c0,4.097,1.496,5.836,3.752,5.836c1.349,0,2.331-0.661,3.312-1.423l1.813,2.354c-1.103,1.127-2.968,2.184-5.322,2.184
				c-4.659,0-7.773-3.141-7.773-8.951c0-5.689,3.286-8.879,7.652-8.879C52.853,84.523,54.397,85.21,55.795,86.388z"/>
			<path fill="#FFFFFF" d="M61.596,84.254c0,1.25-0.957,2.208-2.306,2.208s-2.28-0.957-2.28-2.208s0.932-2.208,2.28-2.208
				C60.64,82.046,61.596,83.002,61.596,84.254z M61.252,101.937h-3.875V88.913h3.875V101.937L61.252,101.937z"/>
			<path fill="#FFFFFF" d="M75.724,83.738v18.198h-3.435l-0.195-1.521c-0.735,1.08-1.938,1.938-3.704,1.938
				c-3.312,0-4.954-2.747-4.954-6.965c0-4.022,2.036-6.894,5.396-6.894c1.178,0,2.231,0.467,3.017,1.228v-6.401L75.724,83.738z
				 M71.849,98.062V92.42c-0.588-0.688-1.177-1.104-2.011-1.104c-1.397,0-2.38,1.179-2.38,4.097c0,3.236,0.884,4.096,2.159,4.096
				C70.523,99.508,71.235,99.019,71.849,98.062z"/>
			<path fill="#FFFFFF" d="M89.781,99.752l-0.81,2.526c-1.521-0.122-2.526-0.589-3.141-1.862c-0.934,1.422-2.378,1.938-3.926,1.938
				c-2.599,0-4.243-1.691-4.243-4.072c0-2.844,2.158-4.39,6.107-4.39h1.324v-0.563c0-1.545-0.613-2.011-2.207-2.011
				c-0.834,0-2.109,0.246-3.409,0.687l-0.883-2.551c1.644-0.613,3.434-0.955,4.905-0.955c3.777,0,5.396,1.594,5.396,4.61v5.052
				C88.898,99.165,89.168,99.532,89.781,99.752z M85.097,98.355v-2.33h-0.956c-1.767,0-2.624,0.613-2.624,1.913
				c0,1.029,0.563,1.645,1.521,1.645C83.919,99.583,84.631,99.116,85.097,98.355z"/>
			<path fill="#FFFFFF" d="M103.447,83.738v18.198h-3.434l-0.197-1.521c-0.735,1.08-1.938,1.938-3.703,1.938
				c-3.312,0-4.954-2.747-4.954-6.965c0-4.022,2.036-6.894,5.396-6.894c1.178,0,2.23,0.467,3.017,1.228v-6.401L103.447,83.738z
				 M99.572,98.062V92.42c-0.589-0.688-1.177-1.104-2.011-1.104c-1.398,0-2.379,1.179-2.379,4.097c0,3.236,0.882,4.096,2.158,4.096
				C98.249,99.508,98.959,99.019,99.572,98.062z"/>
			<path fill="#FFFFFF" d="M117.504,99.752l-0.811,2.526c-1.521-0.122-2.525-0.589-3.14-1.862c-0.935,1.422-2.38,1.938-3.925,1.938
				c-2.602,0-4.242-1.691-4.242-4.072c0-2.844,2.156-4.39,6.105-4.39h1.324v-0.563c0-1.545-0.613-2.011-2.208-2.011
				c-0.833,0-2.108,0.246-3.409,0.687l-0.882-2.551c1.644-0.613,3.435-0.955,4.905-0.955c3.775,0,5.396,1.594,5.396,4.61v5.052
				C116.622,99.165,116.893,99.532,117.504,99.752z M108.726,86.338l-1.938-0.932c0.613-1.57,1.692-2.894,3.164-2.894
				c1.496,0,2.036,1.104,2.846,1.104c0.539,0,0.884-0.368,1.274-1.079l1.938,0.957c-0.639,1.644-1.741,2.869-3.188,2.869
				c-1.422,0-1.985-1.103-2.796-1.103C109.436,85.259,109.118,85.651,108.726,86.338z M112.82,98.355v-2.33h-0.956
				c-1.766,0-2.623,0.613-2.623,1.913c0,1.029,0.563,1.645,1.521,1.645C111.644,99.583,112.354,99.116,112.82,98.355z"/>
			<path fill="#FFFFFF" d="M131.515,95.438c0,4.169-2.403,6.916-6.376,6.916c-3.949,0-6.377-2.55-6.377-6.939
				c0-4.17,2.402-6.916,6.377-6.916C129.111,88.497,131.515,91.047,131.515,95.438z M122.784,95.413
				c0,2.896,0.784,4.096,2.354,4.096c1.567,0,2.354-1.252,2.354-4.069c0-2.896-0.785-4.099-2.354-4.099
				C123.568,91.34,122.784,92.592,122.784,95.413z"/>
		</g>
		<g>
			<path fill="#FFFFFF" d="M55.729,76.971h6.794l-0.369,2.648H52.49V62.671h3.238L55.729,76.971L55.729,76.971z"/>
			<path fill="#FFFFFF" d="M76.151,73.12c0,4.096-2.281,6.867-6.107,6.867c-3.825,0-6.105-2.6-6.105-6.867
				c0-4.07,2.281-6.843,6.131-6.843C73.896,66.277,76.151,68.877,76.151,73.12z M67.249,73.12c0,3.115,0.956,4.488,2.795,4.488
				c1.841,0,2.798-1.398,2.798-4.488c0-3.09-0.957-4.464-2.772-4.464C68.23,68.656,67.249,70.055,67.249,73.12z"/>
			<path fill="#FFFFFF" d="M90.435,67.332c-0.981,0.343-2.208,0.442-3.752,0.442c1.569,0.711,2.354,1.716,2.354,3.335
				c0,2.526-1.963,4.365-5.226,4.365c-0.564,0-1.055-0.05-1.544-0.196c-0.319,0.221-0.54,0.563-0.54,0.957
				c0,0.466,0.27,0.908,1.57,0.908h1.986c2.87,0,4.733,1.545,4.733,3.679c0,2.6-2.231,4.145-6.476,4.145
				c-4.609,0-5.91-1.472-5.91-4.07h2.819c0,1.299,0.564,1.862,3.141,1.862c2.527,0,3.262-0.686,3.262-1.717
				c0-0.956-0.761-1.545-2.207-1.545h-1.962c-2.601,0-3.703-1.152-3.703-2.502c0-0.907,0.563-1.815,1.521-2.403
				c-1.594-0.834-2.28-1.986-2.28-3.653c0-2.82,2.231-4.66,5.372-4.66c3.063,0.074,4.486-0.613,6.058-1.447L90.435,67.332z
				 M81.384,70.889c0,1.568,0.857,2.55,2.306,2.55c1.496,0,2.307-0.932,2.307-2.575c0-1.643-0.787-2.453-2.354-2.453
				C82.218,68.411,81.384,69.393,81.384,70.889z"/>
			<path fill="#FFFFFF" d="M95.79,61.985c0,1.055-0.81,1.888-1.984,1.888c-1.153,0-1.963-0.834-1.963-1.888
				c0-1.079,0.81-1.914,1.963-1.914C94.98,60.072,95.79,60.906,95.79,61.985z M95.397,79.62h-3.139V66.646h3.139V79.62z"/>
			<path fill="#FFFFFF" d="M109.771,70.227v9.394h-3.14v-8.902c0-1.618-0.613-2.085-1.596-2.085c-1.129,0-1.961,0.761-2.724,1.963
				v9.025H99.17V66.646h2.725l0.246,1.717c1.004-1.3,2.305-2.084,3.947-2.084C108.422,66.277,109.771,67.749,109.771,70.227z"/>
		</g>
	</g>
</g>
</svg>
